<svg xmlns="http://www.w3.org/2000/svg" width="60" height="47" fill="none"><g fill="#fff" clip-path="url(#a)"><path d="M30.1 39.371c.412-.566.65-.969.966-1.295 7.687-7.725 15.374-15.45 23.07-23.164 1.454-1.459 3.242-1.622 4.637-.451 1.425 1.19 1.616 3.07.469 4.529-.21.269-.468.509-.717.758l-25.767 25.86c-1.835 1.843-3.585 1.862-5.402.049-8.7-8.732-17.39-17.465-26.091-26.197-.975-.979-1.559-2.092-1.11-3.531.412-1.305 1.31-2.063 2.63-2.293 1.243-.211 2.208.335 3.069 1.199 7.6 7.648 15.22 15.286 22.822 22.924.411.413.765.864 1.424 1.603v.01Z"/><path d="M30.072 16.889c1.28-1.325 2.466-2.582 3.68-3.8 3.94-3.963 7.879-7.917 11.827-11.87 1.31-1.305 2.744-1.536 4.16-.7 1.625.968 2.093 3.05 1.003 4.605-.239.346-.535.653-.831.95L32.787 23.26c-1.903 1.91-3.585 1.929-5.469.029-5.765-5.777-11.54-11.553-17.267-17.368-.583-.595-1.08-1.43-1.262-2.227-.325-1.468.43-2.773 1.645-3.358 1.28-.624 2.772-.384 3.814.662 3.538 3.54 7.075 7.091 10.603 10.632 1.702 1.718 3.414 3.426 5.22 5.258Z"/></g><defs><clipPath id="a"><path fill="#fff" d="M0 0h60v47H0z"/></clipPath></defs></svg>