<svg width="32" height="47" viewBox="0 0 32 47" fill="none" xmlns="http://www.w3.org/2000/svg">
<g clip-path="url(#clip0_36_582)">
<path d="M16.1015 47.0001C15.9422 46.8152 15.7845 46.6511 15.6488 46.4694C14.1819 44.5061 12.6756 42.5714 11.2607 40.5698C8.40887 36.5347 5.80784 32.3403 3.6185 27.8956C2.38029 25.3809 1.30613 22.8008 0.590019 20.0773C-0.436826 16.1697 -0.163947 12.3737 1.69731 8.78321C4.14849 4.06287 7.99876 1.11305 13.2197 0.268427C19.2893 -0.71325 24.3478 1.28995 28.247 6.1059C30.1808 8.49317 31.2329 11.2836 31.6241 14.3402C31.9348 16.7737 31.5862 19.1291 30.9032 21.4542C29.8638 25 28.2817 28.3052 26.5041 31.5196C23.5213 36.9124 20.037 41.9642 16.2593 46.8137C16.2151 46.871 16.1662 46.9236 16.1 46.9985L16.1015 47.0001ZM15.8823 26.2255C21.2499 26.2255 25.698 21.7697 25.7012 16.3896C25.7028 10.8215 21.3351 6.36407 15.8791 6.36566C10.4562 6.36566 6.05864 10.7992 6.04286 16.2812C6.02709 21.749 10.4578 26.2255 15.8823 26.2255Z" fill="#A19166"/>
</g>
<defs>
<clipPath id="clip0_36_582">
<rect width="31.7391" height="46.9739" fill="white" transform="translate(0 0.026123)"/>
</clipPath>
</defs>
</svg>
