<svg width="37" height="36" viewBox="0 0 37 36" fill="none" xmlns="http://www.w3.org/2000/svg">
<path d="M0.00740297 35.3252L2.5012 26.5504C0.857989 23.8532 -0.00533173 20.7853 2.47749e-05 17.6626C2.47749e-05 7.90755 8.25797 0 18.4453 0C28.6325 0 36.8905 7.90755 36.8905 17.6626C36.8905 27.4176 28.6325 35.3252 18.4453 35.3252C15.1856 35.3302 11.9833 34.5042 9.16732 32.9319L0.00740297 35.3252ZM11.7884 9.3753C11.5502 9.38947 11.3174 9.44954 11.1041 9.55193C10.904 9.66042 10.7213 9.79607 10.5618 9.95463C10.3404 10.1542 10.215 10.3273 10.0804 10.4951C9.39865 11.3447 9.03196 12.3875 9.0382 13.4589C9.04189 14.3244 9.27799 15.1669 9.64689 15.9546C10.4013 17.5478 11.6427 19.2346 13.2825 20.7976C13.6772 21.1739 14.0627 21.552 14.4777 21.9034C16.5129 23.6192 18.9382 24.8566 21.5607 25.5171L22.6103 25.6709C22.9514 25.6884 23.2927 25.6638 23.6359 25.6479C24.173 25.6212 24.6975 25.4819 25.1722 25.2399C25.4785 25.0845 25.6223 25.0068 25.8788 24.8513C25.8788 24.8513 25.9581 24.8019 26.1092 24.6923C26.3584 24.5157 26.5114 24.3903 26.718 24.1836C26.8711 24.0318 27.0039 23.8534 27.1053 23.6503C27.2492 23.3622 27.393 22.813 27.452 22.3556C27.4963 22.0057 27.4834 21.815 27.478 21.6967C27.4706 21.5078 27.3064 21.3118 27.1274 21.2286L26.054 20.7678C26.054 20.7678 24.4491 20.0982 23.4697 19.6709C23.3665 19.6277 23.2558 19.6032 23.1432 19.5984C23.0172 19.5861 22.8896 19.5996 22.7692 19.6384C22.6491 19.6769 22.5388 19.7399 22.4461 19.8227V19.8192C22.4368 19.8192 22.3133 19.9199 20.9797 21.4672C20.9032 21.5657 20.7976 21.64 20.6768 21.681C20.5558 21.7217 20.4251 21.7274 20.301 21.6967C20.1806 21.666 20.063 21.6271 19.9485 21.5802C19.7198 21.4884 19.6405 21.4531 19.4838 21.3877L19.4745 21.384C18.4193 20.943 17.4423 20.3471 16.5786 19.6178C16.3462 19.4236 16.1304 19.2116 15.9091 19.0067C15.1834 18.3413 14.551 17.5884 14.0277 16.7671L13.9188 16.5993C13.8406 16.4866 13.7774 16.3649 13.7307 16.2372C13.6606 15.9776 13.8432 15.7692 13.8432 15.7692C13.8432 15.7692 14.2914 15.2993 14.4998 15.045C14.6734 14.8336 14.8353 14.6137 14.9849 14.3862C15.2026 14.0506 15.2709 13.7062 15.1565 13.4395C14.64 12.2313 14.1051 11.0285 13.5555 9.83453C13.4466 9.59785 13.1238 9.42829 12.8305 9.39474C12.7309 9.38414 12.6313 9.37354 12.5317 9.36648C12.284 9.35469 12.0358 9.35705 11.7884 9.37354V9.3753Z" fill="white"/>
</svg>
